<?xml version="1.0" encoding="UTF-8"?>
<svg id="Layer_1" data-name="Layer 1" xmlns="http://www.w3.org/2000/svg" xmlns:xlink="http://www.w3.org/1999/xlink" viewBox="0 0 2769.5 797.58">
  <defs>
    <style>
      .cls-1 {
        fill: url(#linear-gradient);
      }

      .cls-2 {
        fill: #362aff;
      }

      .cls-3 {
        fill: none;
        stroke: #ff662a;
        stroke-miterlimit: 10;
        stroke-width: 5px;
      }

      .cls-4 {
        fill: url(#linear-gradient-3);
      }

      .cls-5 {
        fill: url(#linear-gradient-4);
      }

      .cls-6 {
        fill: url(#linear-gradient-2);
      }

      .cls-7 {
        fill: url(#linear-gradient-6);
      }

      .cls-8 {
        fill: url(#linear-gradient-7);
      }

      .cls-9 {
        fill: url(#linear-gradient-5);
      }
    </style>
    <linearGradient id="linear-gradient" x1="1768.06" y1="771.88" x2="2511.86" y2="342.44" gradientUnits="userSpaceOnUse">
      <stop offset="0" stop-color="#2a32ff"/>
      <stop offset=".05" stop-color="#2838f5"/>
      <stop offset=".14" stop-color="#234bdc"/>
      <stop offset=".25" stop-color="#1b69b2"/>
      <stop offset=".39" stop-color="#109278"/>
      <stop offset=".53" stop-color="#03c730"/>
      <stop offset=".57" stop-color="#00d41f"/>
      <stop offset=".93" stop-color="#d41100"/>
    </linearGradient>
    <linearGradient id="linear-gradient-2" x1="1931.33" y1="691.1" x2="2576.83" y2="318.42" xlink:href="#linear-gradient"/>
    <linearGradient id="linear-gradient-3" x1="1913.71" y1="651.05" x2="2613.28" y2="247.15" xlink:href="#linear-gradient"/>
    <linearGradient id="linear-gradient-4" x1="1886.88" y1="614.31" x2="2644.96" y2="176.63" xlink:href="#linear-gradient"/>
    <linearGradient id="linear-gradient-5" x1="1877.09" y1="563.65" x2="2669.62" y2="106.08" xlink:href="#linear-gradient"/>
    <linearGradient id="linear-gradient-6" x1="1848.57" y1="521.15" x2="2676.05" y2="43.41" xlink:href="#linear-gradient"/>
    <linearGradient id="linear-gradient-7" x1="1828.47" y1="477.43" x2="2683.08" y2="-15.98" xlink:href="#linear-gradient"/>
  </defs>
  <path class="cls-3" d="m203.5.35c5.32,38.01,17.73,93.24,49,153,47.86,91.46,113.02,142.56,137,160,66.74,48.55,129.28,65.99,149,71,44.41,11.3,83.12,13.42,111,13h335.01"/>
  <path class="cls-3" d="m58,796.85c6.96-22.85,18.71-54.06,39-88,12.02-20.09,44.29-70,104-115,59.08-44.52,114.6-61.38,131-66,45.3-12.76,82.17-13.93,116-15,70.88-2.25,106.33-3.37,145,1,9.8,1.11,21.74,2.72,37-1,26.94-6.57,45.4-25.21,65-45,17.47-17.64,20.33-24.84,29-34,17.09-18.06,49.13-36.82,115-36h148"/>
  <path class="cls-3" d="m0,172.85c52.63.05,99.39.04,139,0,94.75-.1,113.41-.31,146,4,35.79,4.73,80.99,10.71,134,34,28.91,12.7,61.94,34.8,128,79,62.73,41.97,52.41,38.11,72,49,34.35,19.09,93.3,46.09,170,55,22.22,2.58,40.68,3.04,53,3h146.03"/>
  <path class="cls-3" d="m249,395.85h738"/>
  <path class="cls-3" d="m438,573.85c.57-15.41,3.52-40.71,17-68,16.44-33.29,39.58-51.38,57-65,16.43-12.85,50.24-38.62,99-44,7.81-.86,14.37-1.02,19-1h356"/>
  <g>
    <polygon class="cls-1" points="1555 392.85 1762 393.69 1762.7 393.7 1763.32 393.91 2726 720.85 1760.69 401.79 1762 402 1555 402.85 1555 392.85"/>
    <polygon class="cls-6" points="2745.5 617.35 1763.4 400.22 1765.61 390.47 2745.5 617.35"/>
    <polygon class="cls-4" points="2759.5 506.35 1768.95 400.32 1770.06 390.38 2759.5 506.35"/>
    <polygon class="cls-5" points="2769.5 397.35 1764.5 402.35 1764.5 392.35 2769.5 397.35"/>
    <polygon class="cls-9" points="2768.5 281.35 1781.06 397.32 1779.94 387.38 2768.5 281.35"/>
    <polygon class="cls-7" points="2750.5 175.35 1777.59 398.23 1775.41 388.47 2750.5 175.35"/>
    <polygon class="cls-8" points="2733.5 73.35 1782.09 397.09 1778.92 387.61 2733.5 73.35"/>
  </g>
  <path class="cls-2" d="m1821.5,374.35c-16.1,4.61-33.81,8.94-53,12.53-18.49,3.46-35.9,5.79-52,7.31v6.27c11.03,1.45,22.38,3.17,34,5.22,24.94,4.39,48.3,9.76,70,15.67-12-7.66-24-15.32-36-22.98,12.33-8.01,24.67-16.01,37-24.02Z"/>
</svg>