<?xml version="1.0" encoding="UTF-8"?>
<svg id="Layer_1" data-name="Layer 1" xmlns="http://www.w3.org/2000/svg" viewBox="0 0 3841.22 1366.9">
  <defs>
    <style>
      .cls-1 {
        fill: #262626;
      }

      .cls-2 {
        fill: #ee3556;
      }

      .cls-2, .cls-3 {
        font-family: FiraSans-SemiBold, 'Fira Sans';
        font-size: 120.4px;
        font-weight: 600;
      }

      .cls-3 {
        fill: #50f5ac;
      }

      .cls-4 {
        stroke: #50f5ac;
      }

      .cls-4, .cls-5 {
        fill: none;
        stroke-miterlimit: 10;
        stroke-width: 10px;
      }

      .cls-5 {
        stroke: #ee3556;
      }

      .cls-6 {
        fill: #b8bbd3;
        font-family: FiraSans-Book, 'Fira Sans';
        font-size: 80.27px;
      }

      .cls-7 {
        letter-spacing: -.01em;
      }
    </style>
  </defs>
  <path class="cls-1" d="m.22,1361.76c957.49-6.8,1933.79-6.89,2891.15,0-957.33,6.89-1933.69,6.81-2891.15,0H.22Z"/>
  <path class="cls-1" d="m1.18,1090.99c957.49-6.8,1933.78-6.89,2891.15,0-957.33,6.89-1933.69,6.81-2891.15,0h0Z"/>
  <path class="cls-1" d="m.38,817.94c957.49-6.8,1933.78-6.89,2891.15,0-957.33,6.89-1933.69,6.81-2891.15,0H.38Z"/>
  <path class="cls-1" d="m.15,549c957.49-6.8,1933.78-6.89,2891.15,0-957.33,6.89-1933.69,6.81-2891.15,0H.15Z"/>
  <path class="cls-1" d="m1.5,276.98c957.49-6.8,1933.78-6.89,2891.15,0-957.33,6.89-1933.69,6.81-2891.15,0h0Z"/>
  <path class="cls-1" d="m2.54,5.14c956.72-6.8,1932.23-6.89,2888.83,0-956.56,6.89-1932.14,6.81-2888.83,0h0Z"/>
  <text class="cls-3" transform="translate(3074.5 136.21)"><tspan x="0" y="0">1,80</tspan><tspan class="cls-7" x="222.62" y="0">0.</tspan><tspan x="318.1" y="0">00€</tspan></text>
  <text class="cls-2" transform="translate(3077.55 707.17)"><tspan x="0" y="0">1,20</tspan><tspan class="cls-7" x="215.16" y="0">0.</tspan><tspan x="310.64" y="0">00€</tspan></text>
  <text class="cls-6" transform="translate(3085.35 290.17)"><tspan x="0" y="0">With Metricslink</tspan></text>
  <text class="cls-6" transform="translate(3085.13 853.74)"><tspan x="0" y="0">Without Metricslink</tspan></text>
  <path class="cls-5" d="m0,1361.88h100.34c12.58.1,22.86-1.64,30.1-3.34,9.58-2.25,26.8-6.5,43.48-20.07,6.09-4.95,10.49-9.83,13.38-13.38,23.41-42.36,46.82-84.73,70.24-127.09,2.42-4.46,6.56-10.8,13.38-16.72,8.57-7.45,17.35-10.33,26.76-13.38,8.52-2.76,21.04-5.91,36.79-6.69h160.54c5.92-.11,14.08-.8,23.41-3.34,4.4-1.2,18.62-5.43,33.45-16.72,22.16-16.88,32.07-39.2,36.79-50.17,4.48-10.42,3.08-10.65,6.69-16.72,11.34-19.05,31.05-26.62,40.13-30.1,7.61-2.92,20.27-6.7,36.79-6.69h428.1c7.98.28,19.74-.07,33.45-3.34,9.7-2.32,26.62-6.56,43.48-20.07,14.08-11.28,22.21-24.28,26.76-33.45,12.26-22.3,24.53-44.59,36.79-66.89,3.3-4.45,8.71-10.82,16.72-16.72,14.38-10.59,29.6-14.1,50.17-16.72,26.01-3.31,39.02-4.97,60.2-3.34,41.82,3.2,180.84,3.88,377.93,3.34,8.72.8,21.81.88,36.79-3.34,8.92-2.52,21.83-6.16,33.45-16.72,5.28-4.8,5.92-7.06,13.38-13.38,4.54-3.85,10.84-9.12,20.07-13.38,5.5-2.54,14.61-5.91,26.76-6.69h555.2c22.3,0,44.6-.4,66.89,0,12.89.23,23.3.56,36.79-3.34,3.38-.98,19.22-5.77,36.79-20.07,23.32-18.98,18.88-29.64,43.48-50.17,15.75-13.14,29.22-18.49,33.45-20.07,13.37-5,25.29-6.37,33.45-6.69h210.71"/>
  <path class="cls-4" d="m1.67,1360.2h103.68c6.77-.89,16.14-2.7,26.76-6.69,5.01-1.88,18.98-7.13,30.1-16.72,15.74-13.57,20.94-31.69,23.41-40.13,9.31-31.88,37.16-122.9,73.58-247.5,3.2-6.66,9.24-17.13,20.07-26.76,14.78-13.15,30.26-17.45,40.13-20.07,8.67-2.3,22.66-4.91,40.13-3.34h33.45c18.73-5.88,31.69-13.81,40.13-20.07,6.12-4.53,11.88-9.71,23.41-20.07,17.2-15.45,20.7-20.06,30.1-23.41,8.02-2.86,9.87-1.07,23.41-3.34,13.79-2.32,26.81-6.69,33.45-10.03,17.89-9,18-24.8,43.48-76.92,15.66-32.04,21.92-38.96,26.76-43.48,15.56-14.56,33.75-20.61,46.82-23.41h454.87c9.35-1.99,28.57-7.41,46.81-23.41,15.31-13.42,23.07-28.28,26.76-36.79,20.07-61.32,40.13-122.63,60.2-183.95,4.26-6.69,12.58-17.8,26.76-26.76,19.45-12.3,38.57-13.39,46.82-13.38h441.48c2.52-.67,6.01-1.73,10.03-3.34,16.74-6.74,27.09-16.99,33.45-23.41,11.67-11.79,18.93-24.03,23.41-33.45,1.84-3.35,5-8.34,10.03-13.38,10.85-10.87,23.17-14.67,30.1-16.72,4.62-1.37,11.47-2.96,20.07-3.34h448.17c14.69-3.55,25.74-8.85,33.45-13.38,4.73-2.78,10.15-6.41,30.1-23.41,18.98-16.18,19.14-17.79,26.76-23.41,8.99-6.63,22.9-14.81,43.48-20.07,16.72-1.11,33.45-2.23,50.17-3.34,4.04-.38,9.93-1.22,16.72-3.34,9.12-2.85,21.5-8.5,43.48-30.1,10.23-10.05,23.39-24.4,36.79-43.48,17.59-13.94,32.87-18.47,43.48-20.07,11.83-1.78,18.67-.02,36.79,0,18.74.02,33.86-1.83,43.48-3.34,10.42-5.04,32.59-17.65,46.82-43.48,5.39-9.78,8.35-19.12,10.03-26.76,1.01-2.6,2.95-6.56,6.69-10.03,4.47-4.16,9.53-5.77,13.38-6.69,10.55-2.52,40.23-6.54,80.27-10.03"/>
</svg>