<?xml version="1.0" encoding="UTF-8"?>
<svg id="Layer_1" data-name="Layer 1" xmlns="http://www.w3.org/2000/svg" viewBox="0 0 2496.6 1355">
  <defs>
    <style>
      .cls-1 {
        fill: #0090ff;
      }

      .cls-2 {
        fill: #e5484d;
      }

      .cls-3 {
        fill: #1f1f1f;
      }

      .cls-4 {
        fill: #0c9784;
      }

      .cls-5 {
        fill: #454545;
      }

      .cls-6 {
        fill: #532800;
      }

      .cls-7 {
        fill: #0a0a0a;
      }

      .cls-7, .cls-8, .cls-9, .cls-10, .cls-11, .cls-12, .cls-13 {
        stroke-miterlimit: 10;
      }

      .cls-7, .cls-8, .cls-9, .cls-12 {
        stroke-width: 2px;
      }

      .cls-7, .cls-12 {
        stroke: #262626;
      }

      .cls-8, .cls-9 {
        stroke-dasharray: 0 0 8.03 8.03;
      }

      .cls-8, .cls-9, .cls-10, .cls-11, .cls-12, .cls-13 {
        fill: none;
      }

      .cls-8, .cls-10 {
        stroke: #a1a1a1;
      }

      .cls-9, .cls-11 {
        stroke: #de8c00;
      }

      .cls-10, .cls-11 {
        stroke-dasharray: 0 0 8.08 8.08;
      }

      .cls-13 {
        stroke: #454545;
        stroke-width: 4px;
      }
    </style>
  </defs>
  <rect class="cls-7" x="1" y="152.22" width="1145.1" height="894.78" rx="30" ry="30"/>
  <ellipse class="cls-2" cx="83.45" cy="228.83" rx="18.32" ry="19.56"/>
  <ellipse class="cls-1" cx="138.41" cy="228.83" rx="18.32" ry="19.56"/>
  <ellipse class="cls-4" cx="193.38" cy="228.83" rx="18.32" ry="19.56"/>
  <rect class="cls-7" x="65.02" y="304" width="1040.9" height="664" rx="30" ry="30"/>
  <rect class="cls-7" x="120.53" y="641" width="613.83" height="273" rx="10" ry="10"/>
  <rect class="cls-3" x="782.56" y="644" width="295.53" height="273" rx="10" ry="10"/>
  <path class="cls-3" d="m788.12,938h283.88c5.52,0,10,4.48,10,10v20h-303.88v-20c0-5.52,4.48-10,10-10Z"/>
  <path class="cls-3" d="m443.13,938h283.88c5.52,0,10,4.48,10,10v20h-303.88v-20c0-5.52,4.48-10,10-10Z"/>
  <path class="cls-3" d="m129.3,937h283.88c5.52,0,10,4.48,10,10v20H119.3v-20c0-5.52,4.48-10,10-10Z"/>
  <g>
    <path class="cls-13" d="m153.89,374.4h13.01v34.89c0,5.54.16,9.13.48,10.77.56,2.64,1.88,4.75,3.98,6.35s4.96,2.39,8.59,2.39,6.47-.75,8.35-2.26c1.88-1.51,3-3.36,3.38-5.56s.57-5.84.57-10.94v-35.64h13.01v33.84c0,7.73-.35,13.2-1.05,16.39s-2,5.89-3.89,8.09c-1.89,2.2-4.42,3.95-7.58,5.25-3.16,1.3-7.29,1.96-12.39,1.96-6.15,0-10.82-.71-14-2.13-3.18-1.42-5.69-3.27-7.54-5.54-1.85-2.27-3.06-4.65-3.65-7.14-.85-3.69-1.27-9.14-1.27-16.35v-34.37Z"/>
    <path class="cls-13" d="m218.54,392.15h11.51v6.86c1.49-2.34,3.52-4.25,6.06-5.71s5.38-2.2,8.48-2.2c5.42,0,10.02,2.12,13.8,6.37s5.67,10.17,5.67,17.75-1.9,13.85-5.71,18.17c-3.81,4.32-8.42,6.48-13.84,6.48-2.58,0-4.92-.51-7.01-1.54s-4.3-2.78-6.61-5.27v23.51h-12.35v-64.42Zm12.22,22.54c0,5.24,1.04,9.12,3.12,11.62,2.08,2.5,4.61,3.76,7.6,3.76s5.26-1.15,7.16-3.45c1.9-2.3,2.86-6.07,2.86-11.32,0-4.89-.98-8.53-2.94-10.9s-4.39-3.56-7.29-3.56-5.52,1.16-7.51,3.49c-1.99,2.33-2.99,5.78-2.99,10.35Z"/>
    <path class="cls-13" d="m269.51,425.5l12.39-1.89c.53,2.4,1.6,4.23,3.21,5.47,1.61,1.25,3.87,1.87,6.77,1.87,3.19,0,5.6-.59,7.21-1.76,1.08-.82,1.63-1.92,1.63-3.3,0-.94-.29-1.71-.88-2.33-.62-.59-1.99-1.13-4.13-1.63-9.96-2.2-16.27-4.2-18.94-6.02-3.69-2.52-5.54-6.02-5.54-10.5,0-4.04,1.6-7.44,4.79-10.2s8.14-4.13,14.85-4.13,11.13,1.04,14.24,3.12,5.24,5.16,6.42,9.23l-11.65,2.15c-.5-1.82-1.44-3.21-2.83-4.17s-3.38-1.45-5.95-1.45c-3.25,0-5.58.45-6.99,1.36-.94.64-1.41,1.48-1.41,2.5,0,.88.41,1.63,1.23,2.24,1.11.82,4.96,1.98,11.54,3.47s11.17,3.33,13.78,5.49c2.58,2.2,3.87,5.26,3.87,9.18,0,4.28-1.79,7.95-5.36,11.03s-8.86,4.61-15.86,4.61c-6.36,0-11.39-1.29-15.09-3.87-3.71-2.58-6.13-6.08-7.27-10.5Z"/>
    <path class="cls-13" d="m350.94,423.97l12.3,2.07c-1.58,4.51-4.08,7.95-7.49,10.31-3.41,2.36-7.68,3.54-12.81,3.54-8.12,0-14.12-2.65-18.02-7.95-3.08-4.25-4.61-9.61-4.61-16.08,0-7.73,2.02-13.79,6.06-18.17s9.16-6.57,15.34-6.57c6.94,0,12.42,2.29,16.44,6.88,4.01,4.59,5.93,11.61,5.76,21.07h-30.94c.09,3.66,1.08,6.51,2.99,8.55,1.9,2.04,4.28,3.05,7.12,3.05,1.93,0,3.56-.53,4.88-1.58s2.31-2.75,2.99-5.1Zm.7-12.48c-.09-3.57-1.01-6.29-2.77-8.15-1.76-1.86-3.9-2.79-6.42-2.79-2.7,0-4.92.98-6.68,2.94s-2.62,4.63-2.59,8h18.46Z"/>
    <path class="cls-13" d="m373.97,438.82v-64.42h12.35v64.42h-12.35Z"/>
    <path class="cls-13" d="m398.98,438.82v-64.42h12.35v64.42h-12.35Z"/>
    <path class="cls-13" d="m503.83,438.82h-14.15l-5.62-14.63h-25.75l-5.32,14.63h-13.8l25.09-64.42h13.75l25.8,64.42Zm-23.95-25.49l-8.88-23.91-8.7,23.91h17.58Z"/>
    <path class="cls-13" d="m529.58,402.96v-11.34h45.04v11.34h-45.04Zm0,19.51v-11.38h45.04v11.38h-45.04Z"/>
    <path class="cls-13" d="m664.71,438.82h-14.15l-5.62-14.63h-25.75l-5.32,14.63h-13.8l25.09-64.42h13.75l25.8,64.42Zm-23.95-25.49l-8.88-23.91-8.7,23.91h17.58Z"/>
    <path class="cls-13" d="m668.98,407c0-6.56.98-12.07,2.94-16.52,1.46-3.28,3.46-6.23,6-8.83s5.31-4.54,8.33-5.8c4.01-1.7,8.64-2.55,13.89-2.55,9.49,0,17.09,2.94,22.79,8.83s8.55,14.08,8.55,24.57-2.83,18.54-8.48,24.41c-5.65,5.88-13.21,8.81-22.68,8.81s-17.2-2.92-22.85-8.77c-5.65-5.85-8.48-13.89-8.48-24.15Zm13.4-.44c0,7.29,1.68,12.83,5.05,16.59s7.65,5.65,12.83,5.65,9.44-1.87,12.77-5.6c3.32-3.73,4.99-9.34,4.99-16.81s-1.62-12.89-4.86-16.52-7.54-5.45-12.9-5.45-9.68,1.84-12.96,5.52-4.92,9.22-4.92,16.63Z"/>
    <path class="cls-13" d="m758.05,438.82l-23.03-64.42h14.11l16.3,47.68,15.78-47.68h13.8l-23.07,64.42h-13.89Z"/>
    <path class="cls-13" d="m168.04,537.55v-16.74h-16.88v-11.56h16.88v-16.74h11.25v16.74h16.92v11.56h-16.92v16.74h-11.25Z"/>
    <path class="cls-13" d="m235.41,546.82h-12.35v-46.54c-4.51,4.22-9.83,7.34-15.95,9.36v-11.21c3.22-1.05,6.72-3.05,10.5-6,3.78-2.94,6.37-6.38,7.78-10.3h10.02v64.69Z"/>
    <path class="cls-13" d="m295.57,535.35v11.47h-43.29c.47-4.34,1.88-8.44,4.22-12.33s6.97-9.03,13.89-15.45c5.57-5.19,8.98-8.7,10.24-10.55,1.7-2.55,2.55-5.07,2.55-7.56,0-2.75-.74-4.87-2.22-6.35-1.48-1.48-3.52-2.22-6.13-2.22s-4.63.78-6.15,2.33-2.4,4.13-2.64,7.73l-12.3-1.23c.73-6.8,3.03-11.67,6.9-14.63s8.7-4.44,14.5-4.44c6.36,0,11.35,1.71,14.99,5.14s5.45,7.69,5.45,12.79c0,2.9-.52,5.66-1.56,8.28-1.04,2.62-2.69,5.37-4.94,8.24-1.49,1.9-4.19,4.64-8.09,8.22s-6.37,5.95-7.4,7.12c-1.04,1.17-1.88,2.31-2.53,3.43h24.52Z"/>
    <path class="cls-13" d="m347.34,483.98l-2.59,12.17c-2.49-2.49-6.12-3.74-10.9-3.74s-8.64,1.71-11.6,5.14c-1.67,1.93-2.86,4.35-3.56,7.25h24.17l-1.41,6.81h-23.64c-.03.67-.04,1.54-.04,2.59s.03,2.09.09,3.21h22.37l-1.41,6.81h-20.04c.73,3.13,1.86,5.6,3.38,7.38,2.93,3.46,6.74,5.19,11.43,5.19,5.62,0,10.11-1.73,13.45-5.19v13.45c-3.81,1.9-8.25,2.86-13.32,2.86-8.55,0-15.59-2.93-21.09-8.79-3.75-3.98-6.23-8.95-7.43-14.9h-6.5l1.41-6.81h4.31c-.03-.7-.04-1.45-.04-2.24,0-1.35.03-2.53.09-3.56h-5.76l1.41-6.81h5.23c1.23-5.83,3.68-10.71,7.34-14.63,5.54-5.92,12.82-8.88,21.84-8.88,4.92,0,9.2.89,12.83,2.68Z"/>
  </g>
  <rect class="cls-7" x="1350.5" y="318.39" width="1145.1" height="894.78" rx="30" ry="30"/>
  <ellipse class="cls-2" cx="1432.95" cy="394.99" rx="18.32" ry="19.56"/>
  <ellipse class="cls-1" cx="1487.91" cy="394.99" rx="18.32" ry="19.56"/>
  <ellipse class="cls-4" cx="1542.88" cy="394.99" rx="18.32" ry="19.56"/>
  <rect class="cls-7" x="1414.52" y="470.16" width="1040.9" height="664" rx="30" ry="30"/>
  <rect class="cls-7" x="1470.03" y="807.16" width="613.83" height="273" rx="10" ry="10"/>
  <rect class="cls-3" x="2132.06" y="810.16" width="295.53" height="273" rx="10" ry="10"/>
  <path class="cls-3" d="m2137.62,1104.16h283.88c5.52,0,10,4.48,10,10v20h-303.88v-20c0-5.52,4.48-10,10-10Z"/>
  <path class="cls-3" d="m1792.63,1104.16h283.88c5.52,0,10,4.48,10,10v20h-303.88v-20c0-5.52,4.48-10,10-10Z"/>
  <path class="cls-3" d="m1478.8,1103.16h283.88c5.52,0,10,4.48,10,10v20h-303.88v-20c0-5.52,4.48-10,10-10Z"/>
  <g>
    <path class="cls-13" d="m1503.39,540.56h13.01v34.89c0,5.54.16,9.13.48,10.77.56,2.64,1.88,4.75,3.98,6.35s4.96,2.39,8.59,2.39,6.47-.75,8.35-2.26c1.88-1.51,3-3.36,3.38-5.56s.57-5.84.57-10.94v-35.64h13.01v33.84c0,7.73-.35,13.2-1.05,16.39s-2,5.89-3.89,8.09c-1.89,2.2-4.42,3.95-7.58,5.25-3.16,1.3-7.29,1.96-12.39,1.96-6.15,0-10.82-.71-14-2.13-3.18-1.42-5.69-3.27-7.54-5.54-1.85-2.27-3.06-4.65-3.65-7.14-.85-3.69-1.27-9.14-1.27-16.35v-34.37Z"/>
    <path class="cls-13" d="m1568.04,558.31h11.51v6.86c1.49-2.34,3.52-4.25,6.06-5.71s5.38-2.2,8.48-2.2c5.42,0,10.02,2.12,13.8,6.37s5.67,10.17,5.67,17.75-1.9,13.85-5.71,18.17c-3.81,4.32-8.42,6.48-13.84,6.48-2.58,0-4.92-.51-7.01-1.54s-4.3-2.78-6.61-5.27v23.51h-12.35v-64.42Zm12.22,22.54c0,5.24,1.04,9.12,3.12,11.62,2.08,2.5,4.61,3.76,7.6,3.76s5.26-1.15,7.16-3.45c1.9-2.3,2.86-6.07,2.86-11.32,0-4.89-.98-8.53-2.94-10.9s-4.39-3.56-7.29-3.56-5.52,1.16-7.51,3.49c-1.99,2.33-2.99,5.78-2.99,10.35Z"/>
    <path class="cls-13" d="m1619.01,591.67l12.39-1.89c.53,2.4,1.6,4.23,3.21,5.47,1.61,1.25,3.87,1.87,6.77,1.87,3.19,0,5.6-.59,7.21-1.76,1.08-.82,1.63-1.92,1.63-3.3,0-.94-.29-1.71-.88-2.33-.62-.59-1.99-1.13-4.13-1.63-9.96-2.2-16.27-4.2-18.94-6.02-3.69-2.52-5.54-6.02-5.54-10.5,0-4.04,1.6-7.44,4.79-10.2s8.14-4.13,14.85-4.13,11.13,1.04,14.24,3.12,5.24,5.16,6.42,9.23l-11.65,2.15c-.5-1.82-1.44-3.21-2.83-4.17s-3.38-1.45-5.95-1.45c-3.25,0-5.58.45-6.99,1.36-.94.64-1.41,1.48-1.41,2.5,0,.88.41,1.63,1.23,2.24,1.11.82,4.96,1.98,11.54,3.47s11.17,3.33,13.78,5.49c2.58,2.2,3.87,5.26,3.87,9.18,0,4.28-1.79,7.95-5.36,11.03s-8.86,4.61-15.86,4.61c-6.36,0-11.39-1.29-15.09-3.87-3.71-2.58-6.13-6.08-7.27-10.5Z"/>
    <path class="cls-13" d="m1700.44,590.13l12.3,2.07c-1.58,4.51-4.08,7.95-7.49,10.31-3.41,2.36-7.68,3.54-12.81,3.54-8.12,0-14.12-2.65-18.02-7.95-3.08-4.25-4.61-9.61-4.61-16.08,0-7.73,2.02-13.79,6.06-18.17s9.16-6.57,15.34-6.57c6.94,0,12.42,2.29,16.44,6.88,4.01,4.59,5.93,11.61,5.76,21.07h-30.94c.09,3.66,1.08,6.51,2.99,8.55,1.9,2.04,4.28,3.05,7.12,3.05,1.93,0,3.56-.53,4.88-1.58s2.31-2.75,2.99-5.1Zm.7-12.48c-.09-3.57-1.01-6.29-2.77-8.15-1.76-1.86-3.9-2.79-6.42-2.79-2.7,0-4.92.98-6.68,2.94s-2.62,4.63-2.59,8h18.46Z"/>
    <path class="cls-13" d="m1723.47,604.98v-64.42h12.35v64.42h-12.35Z"/>
    <path class="cls-13" d="m1748.48,604.98v-64.42h12.35v64.42h-12.35Z"/>
    <path class="cls-13" d="m1798.62,540.56h25.75c5.1,0,8.9.21,11.4.64,2.5.43,4.75,1.31,6.72,2.66,1.98,1.35,3.63,3.14,4.94,5.38,1.32,2.24,1.98,4.75,1.98,7.54,0,3.02-.81,5.79-2.44,8.31-1.62,2.52-3.83,4.41-6.61,5.67,3.93,1.14,6.94,3.09,9.05,5.84s3.16,5.99,3.16,9.71c0,2.93-.68,5.78-2.04,8.55-1.36,2.77-3.22,4.98-5.58,6.63-2.36,1.66-5.27,2.67-8.72,3.05-2.17.23-7.4.38-15.69.44h-21.93v-64.42Zm13.01,10.72v14.9h8.53c5.07,0,8.22-.07,9.45-.22,2.23-.26,3.98-1.03,5.25-2.31s1.91-2.95,1.91-5.03-.55-3.61-1.65-4.86c-1.1-1.24-2.73-2-4.9-2.26-1.29-.15-5-.22-11.12-.22h-7.47Zm0,25.62v17.23h12.04c4.69,0,7.66-.13,8.92-.4,1.93-.35,3.51-1.21,4.72-2.57,1.22-1.36,1.82-3.19,1.82-5.47,0-1.93-.47-3.57-1.41-4.92s-2.29-2.33-4.06-2.94c-1.77-.62-5.62-.92-11.54-.92h-10.5Z"/>
    <path class="cls-13" d="m1885.76,569.12v-11.34h45.04v11.34h-45.04Zm0,19.51v-11.38h45.04v11.38h-45.04Z"/>
    <path class="cls-13" d="m2020.89,604.98h-14.15l-5.62-14.63h-25.75l-5.32,14.63h-13.8l25.09-64.42h13.75l25.8,64.42Zm-23.95-25.49l-8.88-23.91-8.7,23.91h17.58Z"/>
    <path class="cls-13" d="m2025.16,573.17c0-6.56.98-12.07,2.94-16.52,1.46-3.28,3.46-6.23,6-8.83s5.31-4.54,8.33-5.8c4.01-1.7,8.64-2.55,13.89-2.55,9.49,0,17.09,2.94,22.79,8.83s8.55,14.08,8.55,24.57-2.83,18.54-8.48,24.41c-5.65,5.88-13.21,8.81-22.68,8.81s-17.2-2.92-22.85-8.77c-5.65-5.85-8.48-13.89-8.48-24.15Zm13.4-.44c0,7.29,1.68,12.83,5.05,16.59s7.65,5.65,12.83,5.65,9.44-1.87,12.77-5.6c3.32-3.73,4.99-9.34,4.99-16.81s-1.62-12.89-4.86-16.52-7.54-5.45-12.9-5.45-9.68,1.84-12.96,5.52-4.92,9.22-4.92,16.63Z"/>
    <path class="cls-13" d="m2114.23,604.98l-23.03-64.42h14.11l16.3,47.68,15.78-47.68h13.8l-23.07,64.42h-13.89Z"/>
    <path class="cls-13" d="m1517.54,703.71v-16.74h-16.88v-11.56h16.88v-16.74h11.25v16.74h16.92v11.56h-16.92v16.74h-11.25Z"/>
    <path class="cls-13" d="m1552.88,695.89l11.95-1.45c.38,3.05,1.41,5.38,3.08,6.99s3.69,2.42,6.06,2.42c2.55,0,4.69-.97,6.44-2.9,1.74-1.93,2.61-4.54,2.61-7.82,0-3.11-.83-5.57-2.5-7.38s-3.71-2.72-6.11-2.72c-1.58,0-3.47.31-5.67.92l1.36-10.06c3.34.09,5.89-.64,7.65-2.18,1.76-1.54,2.64-3.58,2.64-6.13,0-2.17-.64-3.9-1.93-5.19s-3-1.93-5.14-1.93-3.91.73-5.41,2.2-2.4,3.6-2.72,6.42l-11.38-1.93c.79-3.9,1.98-7.01,3.58-9.34,1.6-2.33,3.82-4.16,6.68-5.49,2.86-1.33,6.06-2,9.6-2,6.06,0,10.93,1.93,14.59,5.8,3.02,3.16,4.53,6.74,4.53,10.72,0,5.65-3.09,10.17-9.27,13.54,3.69.79,6.64,2.56,8.86,5.32,2.21,2.75,3.32,6.08,3.32,9.98,0,5.65-2.07,10.47-6.2,14.46s-9.27,5.98-15.42,5.98c-5.83,0-10.66-1.68-14.5-5.03-3.84-3.35-6.06-7.74-6.68-13.16Z"/>
    <path class="cls-13" d="m1627.58,712.98v-12.96h-26.37v-10.81l27.95-40.91h10.37v40.87h8v10.85h-8v12.96h-11.95Zm0-23.82v-22.02l-14.81,22.02h14.81Z"/>
    <path class="cls-13" d="m1696.84,650.14l-2.59,12.17c-2.49-2.49-6.12-3.74-10.9-3.74s-8.64,1.71-11.6,5.14c-1.67,1.93-2.86,4.35-3.56,7.25h24.17l-1.41,6.81h-23.64c-.03.67-.04,1.54-.04,2.59s.03,2.09.09,3.21h22.37l-1.41,6.81h-20.04c.73,3.13,1.86,5.6,3.38,7.38,2.93,3.46,6.74,5.19,11.43,5.19,5.62,0,10.11-1.73,13.45-5.19v13.45c-3.81,1.9-8.25,2.86-13.32,2.86-8.55,0-15.59-2.93-21.09-8.79-3.75-3.98-6.23-8.95-7.43-14.9h-6.5l1.41-6.81h4.31c-.03-.7-.04-1.45-.04-2.24,0-1.35.03-2.53.09-3.56h-5.76l1.41-6.81h5.23c1.23-5.83,3.68-10.71,7.34-14.63,5.54-5.92,12.82-8.88,21.84-8.88,4.92,0,9.2.89,12.83,2.68Z"/>
  </g>
  <rect class="cls-3" x="1514.73" y="845.5" width="80.37" height="15" rx="7.5" ry="7.5"/>
  <rect class="cls-3" x="1570.35" y="879" width="61.95" height="15" rx="7.5" ry="7.5"/>
  <rect class="cls-3" x="1612.34" y="845" width="45.75" height="15" rx="7.5" ry="7.5"/>
  <rect class="cls-3" x="1514.45" y="879.27" width="38.65" height="15" rx="7.5" ry="7.5"/>
  <path class="cls-3" d="m1528.42,1019.12h66.24c6.87,0,12.44,5.57,12.44,12.44h0c0,6.87-5.57,12.44-12.44,12.44h-66.12c-6.87,0-12.44-5.57-12.44-12.44v-.12c0-6.8,5.52-12.32,12.32-12.32Z"/>
  <rect class="cls-3" x="156.65" y="679.69" width="80.37" height="15" rx="7.5" ry="7.5"/>
  <rect class="cls-3" x="212.28" y="713.19" width="61.95" height="15" rx="7.5" ry="7.5"/>
  <rect class="cls-3" x="254.27" y="679.19" width="45.75" height="15" rx="7.5" ry="7.5"/>
  <rect class="cls-3" x="156.37" y="713.45" width="38.65" height="15" rx="7.5" ry="7.5"/>
  <path class="cls-3" d="m170.34,853.31h66.24c6.87,0,12.44,5.57,12.44,12.44h0c0,6.87-5.57,12.44-12.44,12.44h-66.12c-6.87,0-12.44-5.57-12.44-12.44v-.12c0-6.8,5.52-12.32,12.32-12.32Z"/>
  <g>
    <rect class="cls-6" x="1780.46" y="865.44" width="129.64" height="119.76" rx="10" ry="10"/>
    <rect class="cls-9" x="1780.46" y="865.44" width="129.64" height="119.76" rx="10" ry="10"/>
  </g>
  <g>
    <rect class="cls-6" x="1782.09" y="998.82" width="80.37" height="15" rx="7.5" ry="7.5"/>
    <path class="cls-11" d="m1854.96,1013.82h-65.37c-4.14,0-7.5-3.36-7.5-7.5s3.36-7.5,7.5-7.5h65.37c4.14,0,7.5,3.36,7.5,7.5s-3.36,7.5-7.5,7.5Z"/>
  </g>
  <g>
    <rect class="cls-5" x="438.39" y="693.78" width="129.64" height="119.76" rx="10" ry="10"/>
    <rect class="cls-8" x="438.39" y="693.78" width="129.64" height="119.76" rx="10" ry="10"/>
  </g>
  <g>
    <rect class="cls-5" x="440.02" y="827.16" width="80.37" height="15" rx="7.5" ry="7.5"/>
    <path class="cls-10" d="m512.89,842.16h-65.37c-4.14,0-7.5-3.36-7.5-7.5s3.36-7.5,7.5-7.5h65.37c4.14,0,7.5,3.36,7.5,7.5s-3.36,7.5-7.5,7.5Z"/>
  </g>
  <line class="cls-12" x1="1251.1" x2="1251.1" y2="1355"/>
</svg>