<?xml version="1.0" encoding="UTF-8"?>
<svg id="Layer_1" data-name="Layer 1" xmlns="http://www.w3.org/2000/svg" viewBox="0 0 2811.41 1181">
  <defs>
    <style>
      .cls-1 {
        stroke-width: 14px;
      }

      .cls-1, .cls-2, .cls-3, .cls-4, .cls-5, .cls-6, .cls-7, .cls-8, .cls-9 {
        stroke-miterlimit: 10;
      }

      .cls-1, .cls-2, .cls-4, .cls-5, .cls-6, .cls-7, .cls-8, .cls-9 {
        fill: none;
      }

      .cls-1, .cls-2, .cls-8, .cls-9 {
        stroke: #5f5f5f;
      }

      .cls-2 {
        stroke-width: 15px;
      }

      .cls-10 {
        fill: #0090ff;
      }

      .cls-11 {
        fill: #e5484d;
      }

      .cls-12 {
        fill: #0c9784;
      }

      .cls-3 {
        fill: #0a0a0a;
        stroke: #262626;
        stroke-width: 2px;
      }

      .cls-4 {
        stroke: #e3484c;
      }

      .cls-4, .cls-5, .cls-6, .cls-7 {
        stroke-width: 10px;
      }

      .cls-5 {
        stroke: #0c917f;
      }

      .cls-6 {
        stroke: #0188f0;
      }

      .cls-7 {
        stroke: #feb224;
      }

      .cls-8 {
        stroke-width: 11px;
      }

      .cls-9 {
        stroke-width: 13px;
      }
    </style>
  </defs>
  <path class="cls-2" d="m1552,642h528"/>
  <path class="cls-8" d="m1548,608.5h528"/>
  <path class="cls-1" d="m1547,573.5h528"/>
  <path class="cls-9" d="m1550,537.5h528"/>
  <rect class="cls-3" x="2060.41" y="297" width="750" height="593" rx="30" ry="30"/>
  <ellipse class="cls-11" cx="2114.41" cy="347.77" rx="12" ry="12.96"/>
  <ellipse class="cls-10" cx="2150.41" cy="347.77" rx="12" ry="12.96"/>
  <ellipse class="cls-12" cx="2186.41" cy="347.77" rx="12" ry="12.96"/>
  <path class="cls-3" d="m2617,456h-441c-22.09,0-40,17.91-40,40v3c0,8.93,2.93,17.18,7.88,23.83-.53,1.33-1.14,2.72-1.88,4.17-4.31,8.54-8.19,10.62-7,13,2.36,4.73,21.14,3.42,33.9-1.64,2.3.41,4.67.64,7.1.64h441c22.09,0,40-17.91,40-40v-3c0-22.09-17.91-40-40-40Z"/>
  <path class="cls-3" d="m2355,598h-175c-22.09,0-40,17.91-40,40v3c0,7.35,1.99,14.24,5.46,20.16-.7,2.49-1.77,5.12-3.46,7.84-3.26,5.27-7.04,8.09-6,10,.86,1.58,4.45,1.54,16-1,3.21-.71,6.12-1.34,8.74-1.94,5.71,3.15,12.28,4.94,19.26,4.94h175c22.09,0,40-17.91,40-40v-3c0-22.09-17.91-40-40-40Z"/>
  <path class="cls-3" d="m2724,808c-2.03-3.58-2.99-6.87-3.41-9.92,3.44-5.9,5.41-12.76,5.41-20.08v-3c0-22.09-17.91-40-40-40h-175c-22.09,0-40,17.91-40,40v3c0,22.09,17.91,40,40,40h175c4.76,0,9.33-.84,13.56-2.36,5.17,1.06,10.6,2.17,16.44,3.36,5.74,1.17,12.6,2.52,14,0,1.22-2.2-2.82-5.39-6-11Z"/>
  <rect class="cls-3" x="1211" y="406" width="345" height="368" rx="30" ry="30"/>
  <path class="cls-6" d="m449.76,82.16c13.63,2.16,34.31,6.74,57.1,17.68,41.54,19.92,65.49,49.13,74.34,59.58,16.6,19.6,68.69,62.74,172.85,149.02,70.71,58.57,114.78,95.07,184.76,132.95,102.18,55.31,174.8,67.65,209.41,71.81,26.21,3.15,48.33,3.73,64.02,3.64"/>
  <path class="cls-4" d="m427,413c24.74,4.12,63.8,11.44,111,24,56.36,15,75.24,24.41,157,51,61.25,19.92,101.15,32.9,155,46,29.89,7.27,84.58,20.4,156,29,52.63,6.34,123.13,11.27,207,7"/>
  <path class="cls-7" d="m615,756c20.78.09,50.74-1.21,86-8,15.33-2.95,50.86-10.64,119-40,74.96-32.29,68.26-38.63,119-58,56.32-21.5,103.65-28.61,141-34,49.83-7.2,93.69-8.69,129-8"/>
  <path class="cls-5" d="m632,1097c17.71,2.01,44.68,2.53,74-8,22.41-8.05,50.76-24.2,95-82,38.21-49.93,37.54-64.63,73-120,27.83-43.46,58.27-91,113-136,57.59-47.35,113.45-68.37,136-76,36-12.18,67.72-17.5,91-20"/>
  <rect class="cls-3" x="3" y="1" width="439" height="160" rx="70" ry="70"/>
  <rect class="cls-3" x="1" y="339" width="439" height="160" rx="70" ry="70"/>
  <rect class="cls-3" x="7" y="681" width="617" height="160" rx="70" ry="70"/>
  <rect class="cls-3" x="7" y="1020" width="617" height="160" rx="70" ry="70"/>
</svg>