<?xml version="1.0" encoding="UTF-8"?>
<svg id="Layer_1" data-name="Layer 1" xmlns="http://www.w3.org/2000/svg" viewBox="0 0 941.53 718.2">
  <defs>
    <style>
      .cls-1 {
        fill: #f93446;
      }

      .cls-2 {
        fill: #00a84d;
      }

      .cls-3 {
        fill: #0093ff;
      }

      .cls-4 {
        fill: #fff;
      }

      .cls-5 {
        fill: #f30070;
      }

      .cls-6 {
        fill: #ff9300;
      }

      .cls-7 {
        fill: #1f1f1f;
      }

      .cls-8 {
        fill: #1a1a1a;
      }

      .cls-9 {
        fill: #0a0a0a;
        stroke: #262626;
        stroke-miterlimit: 10;
        stroke-width: 2px;
      }
    </style>
  </defs>
  <rect class="cls-9" x="1" y="1" width="939.53" height="716.2" rx="20" ry="20"/>
  <rect class="cls-8" x="74.4" y="177.36" width="202.59" height="458.92" rx="5" ry="5"/>
  <rect class="cls-8" x="309.48" y="176.42" width="554.91" height="174.1" rx="5" ry="5"/>
  <rect class="cls-8" x="308.81" y="373.61" width="554.91" height="261.69" rx="5" ry="5"/>
  <circle class="cls-7" cx="106.7" cy="106.89" r="23.49"/>
  <rect class="cls-7" x="144.86" y="92.21" width="44.04" height="29.36" rx="5" ry="5"/>
  <rect class="cls-7" x="670.41" y="92.21" width="44.04" height="29.36" rx="5" ry="5"/>
  <rect class="cls-7" x="735" y="92.21" width="64.59" height="29.36" rx="5" ry="5"/>
  <rect class="cls-7" x="820.15" y="92.21" width="44.04" height="29.36" rx="5" ry="5"/>
  <rect class="cls-6" x="661.76" y="284.2" width="78" height="43" rx="15" ry="15"/>
  <path class="cls-6" d="m633.72,254.54c.31-.25.73-.28,1.07-.08l22.79,13.23c.45.26.61.84.34,1.29-.12.21-.31.36-.54.43l-9.38,2.87-4.81,8.55c-.26.45-.83.62-1.29.36-.21-.12-.36-.31-.44-.53l-8.06-25.09c-.12-.37,0-.78.31-1.02h0Z"/>
  <g>
    <path class="cls-4" d="m676.33,300.22h2.6v6.98c0,1.11.03,1.83.1,2.15.11.53.38.95.79,1.27s.99.48,1.72.48,1.29-.15,1.67-.45.6-.67.68-1.11.11-1.17.11-2.19v-7.13h2.6v6.77c0,1.55-.07,2.64-.21,3.28s-.4,1.18-.78,1.62c-.38.44-.88.79-1.52,1.05s-1.46.39-2.48.39c-1.23,0-2.16-.14-2.8-.43s-1.14-.65-1.51-1.11-.61-.93-.73-1.43c-.17-.74-.25-1.83-.25-3.27v-6.87Z"/>
    <path class="cls-4" d="m688.46,310.44l2.48-.38c.11.48.32.84.64,1.09s.77.37,1.35.37c.64,0,1.12-.12,1.44-.35.22-.16.33-.38.33-.66,0-.19-.06-.34-.18-.47-.12-.12-.4-.23-.83-.33-1.99-.44-3.25-.84-3.79-1.2-.74-.5-1.11-1.2-1.11-2.1,0-.81.32-1.49.96-2.04s1.63-.83,2.97-.83,2.23.21,2.85.62,1.05,1.03,1.28,1.85l-2.33.43c-.1-.36-.29-.64-.57-.83s-.67-.29-1.19-.29c-.65,0-1.12.09-1.4.27-.19.13-.28.3-.28.5,0,.18.08.33.25.45.22.16.99.4,2.31.69s2.23.67,2.76,1.1c.52.44.77,1.05.77,1.84,0,.86-.36,1.59-1.07,2.21s-1.77.92-3.17.92c-1.27,0-2.28-.26-3.02-.77-.74-.52-1.23-1.22-1.46-2.1Z"/>
    <path class="cls-4" d="m704.74,310.13l2.46.41c-.32.9-.82,1.59-1.5,2.06-.68.47-1.54.71-2.56.71-1.62,0-2.82-.53-3.6-1.59-.62-.85-.92-1.92-.92-3.22,0-1.55.4-2.76,1.21-3.63s1.83-1.31,3.07-1.31c1.39,0,2.48.46,3.29,1.38s1.19,2.32,1.15,4.21h-6.19c.02.73.22,1.3.6,1.71s.86.61,1.42.61c.39,0,.71-.11.98-.32s.46-.55.6-1.02Zm.14-2.5c-.02-.71-.2-1.26-.55-1.63s-.78-.56-1.28-.56c-.54,0-.98.2-1.34.59s-.52.93-.52,1.6h3.69Z"/>
    <path class="cls-4" d="m711.71,313.1h-2.47v-9.33h2.29v1.33c.39-.63.75-1.04,1.06-1.24s.67-.3,1.07-.3c.56,0,1.1.16,1.63.47l-.76,2.15c-.42-.27-.8-.4-1.16-.4s-.64.09-.88.29-.43.54-.57,1.03c-.14.5-.21,1.54-.21,3.13v2.88Z"/>
    <path class="cls-4" d="m729.17,310.81v2.29h-8.66c.09-.87.38-1.69.84-2.47s1.39-1.81,2.78-3.09c1.11-1.04,1.8-1.74,2.05-2.11.34-.51.51-1.01.51-1.51,0-.55-.15-.97-.44-1.27-.3-.3-.71-.44-1.23-.44s-.93.16-1.23.47-.48.83-.53,1.55l-2.46-.25c.15-1.36.61-2.33,1.38-2.93s1.74-.89,2.9-.89c1.27,0,2.27.34,3,1.03s1.09,1.54,1.09,2.56c0,.58-.1,1.13-.31,1.66s-.54,1.07-.99,1.65c-.3.38-.84.93-1.62,1.64s-1.27,1.19-1.48,1.42c-.21.23-.38.46-.51.69h4.9Z"/>
  </g>
  <rect class="cls-3" x="145.76" y="151.2" width="78" height="43" rx="15" ry="15"/>
  <path class="cls-3" d="m253.7,121.54c.3.25.43.65.31,1.02l-8.06,25.09c-.07.23-.23.42-.44.53-.45.26-1.03.1-1.29-.36l-4.81-8.55-9.38-2.87c-.23-.07-.42-.22-.54-.43-.26-.45-.11-1.03.34-1.29l22.79-13.23c.34-.2.76-.16,1.07.08h0Z"/>
  <g>
    <path class="cls-4" d="m160.33,167.22h2.6v6.98c0,1.11.03,1.83.1,2.15.11.53.38.95.79,1.27s.99.48,1.72.48,1.29-.15,1.67-.45.6-.67.68-1.11.11-1.17.11-2.19v-7.13h2.6v6.77c0,1.55-.07,2.64-.21,3.28s-.4,1.18-.78,1.62c-.38.44-.88.79-1.52,1.05s-1.46.39-2.48.39c-1.23,0-2.16-.14-2.8-.43s-1.14-.65-1.51-1.11-.61-.93-.73-1.43c-.17-.74-.25-1.83-.25-3.27v-6.87Z"/>
    <path class="cls-4" d="m172.46,177.44l2.48-.38c.11.48.32.85.64,1.09s.77.37,1.35.37c.64,0,1.12-.12,1.44-.35.22-.16.33-.38.33-.66,0-.19-.06-.34-.18-.47-.12-.12-.4-.23-.83-.33-1.99-.44-3.25-.84-3.79-1.2-.74-.5-1.11-1.2-1.11-2.1,0-.81.32-1.49.96-2.04s1.63-.83,2.97-.83,2.23.21,2.85.62,1.05,1.03,1.28,1.85l-2.33.43c-.1-.36-.29-.64-.57-.83s-.67-.29-1.19-.29c-.65,0-1.12.09-1.4.27-.19.13-.28.3-.28.5,0,.18.08.33.25.45.22.16.99.4,2.31.69s2.23.67,2.76,1.1c.52.44.77,1.05.77,1.84,0,.86-.36,1.59-1.07,2.21s-1.77.92-3.17.92c-1.27,0-2.28-.26-3.02-.77-.74-.52-1.23-1.22-1.46-2.1Z"/>
    <path class="cls-4" d="m188.74,177.13l2.46.41c-.32.9-.82,1.59-1.5,2.06-.68.47-1.54.71-2.56.71-1.62,0-2.82-.53-3.6-1.59-.62-.85-.92-1.92-.92-3.22,0-1.55.4-2.76,1.21-3.63s1.83-1.31,3.07-1.31c1.39,0,2.48.46,3.29,1.38s1.19,2.32,1.15,4.21h-6.19c.02.73.22,1.3.6,1.71s.86.61,1.42.61c.39,0,.71-.11.98-.32s.46-.55.6-1.02Zm.14-2.5c-.02-.71-.2-1.26-.55-1.63s-.78-.56-1.28-.56c-.54,0-.98.2-1.34.59s-.52.93-.52,1.6h3.69Z"/>
    <path class="cls-4" d="m195.71,180.1h-2.47v-9.33h2.29v1.33c.39-.63.75-1.04,1.06-1.24s.67-.3,1.07-.3c.56,0,1.1.16,1.63.47l-.76,2.15c-.42-.27-.8-.4-1.16-.4s-.64.1-.88.29-.43.53-.57,1.03c-.14.5-.21,1.54-.21,3.13v2.88Z"/>
    <path class="cls-4" d="m211.15,180.1h-2.47v-9.31c-.9.84-1.97,1.47-3.19,1.87v-2.24c.64-.21,1.34-.61,2.1-1.2s1.27-1.28,1.56-2.06h2v12.94Z"/>
  </g>
  <rect class="cls-2" x="509.76" y="403.2" width="78" height="43" rx="15" ry="15"/>
  <path class="cls-2" d="m481.72,373.54c.31-.25.73-.28,1.07-.08l22.79,13.23c.45.26.61.84.34,1.29-.12.21-.31.36-.54.43l-9.38,2.87-4.81,8.55c-.26.45-.83.62-1.29.36-.21-.12-.36-.31-.44-.53l-8.06-25.09c-.12-.37,0-.78.31-1.02h0Z"/>
  <g>
    <path class="cls-4" d="m524.33,419.22h2.6v6.98c0,1.11.03,1.83.1,2.15.11.53.38.95.79,1.27s.99.48,1.72.48,1.29-.15,1.67-.45.6-.67.68-1.11.11-1.17.11-2.19v-7.13h2.6v6.77c0,1.55-.07,2.64-.21,3.28s-.4,1.18-.78,1.62c-.38.44-.88.79-1.52,1.05s-1.46.39-2.48.39c-1.23,0-2.16-.14-2.8-.43s-1.14-.65-1.51-1.11-.61-.93-.73-1.43c-.17-.74-.25-1.83-.25-3.27v-6.87Z"/>
    <path class="cls-4" d="m536.46,429.44l2.48-.38c.11.48.32.84.64,1.09s.77.37,1.35.37c.64,0,1.12-.12,1.44-.35.22-.16.33-.38.33-.66,0-.19-.06-.34-.18-.47-.12-.12-.4-.23-.83-.33-1.99-.44-3.25-.84-3.79-1.2-.74-.5-1.11-1.2-1.11-2.1,0-.81.32-1.49.96-2.04s1.63-.83,2.97-.83,2.23.21,2.85.62,1.05,1.03,1.28,1.85l-2.33.43c-.1-.36-.29-.64-.57-.83s-.67-.29-1.19-.29c-.65,0-1.12.09-1.4.27-.19.13-.28.3-.28.5,0,.18.08.33.25.45.22.16.99.4,2.31.69s2.23.67,2.76,1.1c.52.44.77,1.05.77,1.84,0,.86-.36,1.59-1.07,2.21s-1.77.92-3.17.92c-1.27,0-2.28-.26-3.02-.77-.74-.52-1.23-1.22-1.46-2.1Z"/>
    <path class="cls-4" d="m552.74,429.13l2.46.41c-.32.9-.82,1.59-1.5,2.06-.68.47-1.54.71-2.56.71-1.62,0-2.82-.53-3.6-1.59-.62-.85-.92-1.92-.92-3.22,0-1.55.4-2.76,1.21-3.63s1.83-1.31,3.07-1.31c1.39,0,2.48.46,3.29,1.38s1.19,2.32,1.15,4.21h-6.19c.02.73.22,1.3.6,1.71s.86.61,1.42.61c.39,0,.71-.11.98-.32s.46-.55.6-1.02Zm.14-2.5c-.02-.71-.2-1.26-.55-1.63s-.78-.56-1.28-.56c-.54,0-.98.2-1.34.59s-.52.93-.52,1.6h3.69Z"/>
    <path class="cls-4" d="m559.71,432.1h-2.47v-9.33h2.29v1.33c.39-.63.75-1.04,1.06-1.24s.67-.3,1.07-.3c.56,0,1.1.16,1.63.47l-.76,2.15c-.42-.27-.8-.4-1.16-.4s-.64.09-.88.29-.43.54-.57,1.03c-.14.5-.21,1.54-.21,3.13v2.88Z"/>
    <path class="cls-4" d="m568.74,428.68l2.39-.29c.08.61.28,1.08.62,1.4s.74.48,1.21.48c.51,0,.94-.19,1.29-.58.35-.39.52-.91.52-1.56,0-.62-.17-1.11-.5-1.48s-.74-.54-1.22-.54c-.32,0-.69.06-1.13.18l.27-2.01c.67.02,1.18-.13,1.53-.44s.53-.72.53-1.23c0-.43-.13-.78-.39-1.04s-.6-.39-1.03-.39-.78.15-1.08.44-.48.72-.54,1.28l-2.28-.39c.16-.78.4-1.4.72-1.87.32-.47.76-.83,1.34-1.1.57-.27,1.21-.4,1.92-.4,1.21,0,2.19.39,2.92,1.16.6.63.91,1.35.91,2.14,0,1.13-.62,2.03-1.85,2.71.74.16,1.33.51,1.77,1.06.44.55.66,1.22.66,2,0,1.13-.41,2.09-1.24,2.89s-1.85,1.2-3.08,1.2c-1.17,0-2.13-.34-2.9-1.01s-1.21-1.55-1.34-2.63Z"/>
  </g>
  <rect class="cls-1" x="793.76" y="606.2" width="78" height="43" rx="15" ry="15"/>
  <path class="cls-1" d="m765.72,576.54c.31-.25.73-.28,1.07-.08l22.79,13.23c.45.26.61.84.34,1.29-.12.21-.31.36-.54.43l-9.38,2.87-4.81,8.55c-.26.45-.83.62-1.29.36-.21-.12-.36-.31-.44-.53l-8.06-25.09c-.12-.37,0-.78.31-1.02h0Z"/>
  <g>
    <path class="cls-4" d="m808.33,622.22h2.6v6.98c0,1.11.03,1.83.1,2.15.11.53.38.95.79,1.27s.99.48,1.72.48,1.29-.15,1.67-.45.6-.67.68-1.11.11-1.17.11-2.19v-7.13h2.6v6.77c0,1.55-.07,2.64-.21,3.28s-.4,1.18-.78,1.62c-.38.44-.88.79-1.52,1.05s-1.46.39-2.48.39c-1.23,0-2.16-.14-2.8-.43s-1.14-.65-1.51-1.11-.61-.93-.73-1.43c-.17-.74-.25-1.83-.25-3.27v-6.87Z"/>
    <path class="cls-4" d="m820.46,632.44l2.48-.38c.11.48.32.84.64,1.09s.77.37,1.35.37c.64,0,1.12-.12,1.44-.35.22-.16.33-.38.33-.66,0-.19-.06-.34-.18-.47-.12-.12-.4-.23-.83-.33-1.99-.44-3.25-.84-3.79-1.2-.74-.5-1.11-1.2-1.11-2.1,0-.81.32-1.49.96-2.04s1.63-.83,2.97-.83,2.23.21,2.85.62,1.05,1.03,1.28,1.85l-2.33.43c-.1-.36-.29-.64-.57-.83s-.67-.29-1.19-.29c-.65,0-1.12.09-1.4.27-.19.13-.28.3-.28.5,0,.18.08.33.25.45.22.16.99.4,2.31.69s2.23.67,2.76,1.1c.52.44.77,1.05.77,1.84,0,.86-.36,1.59-1.07,2.21s-1.77.92-3.17.92c-1.27,0-2.28-.26-3.02-.77-.74-.52-1.23-1.22-1.46-2.1Z"/>
    <path class="cls-4" d="m836.74,632.13l2.46.41c-.32.9-.82,1.59-1.5,2.06-.68.47-1.54.71-2.56.71-1.62,0-2.82-.53-3.6-1.59-.62-.85-.92-1.92-.92-3.22,0-1.55.4-2.76,1.21-3.63s1.83-1.31,3.07-1.31c1.39,0,2.48.46,3.29,1.38s1.19,2.32,1.15,4.21h-6.19c.02.73.22,1.3.6,1.71s.86.61,1.42.61c.39,0,.71-.11.98-.32s.46-.55.6-1.02Zm.14-2.5c-.02-.71-.2-1.26-.55-1.63s-.78-.56-1.28-.56c-.54,0-.98.2-1.34.59s-.52.93-.52,1.6h3.69Z"/>
    <path class="cls-4" d="m843.71,635.1h-2.47v-9.33h2.29v1.33c.39-.63.75-1.04,1.06-1.24s.67-.3,1.07-.3c.56,0,1.1.16,1.63.47l-.76,2.15c-.42-.27-.8-.4-1.16-.4s-.64.09-.88.29-.43.54-.57,1.03c-.14.5-.21,1.54-.21,3.13v2.88Z"/>
    <path class="cls-4" d="m852.86,631.79l2.46-.25c.07.56.28,1,.62,1.32s.74.49,1.2.49c.52,0,.95-.21,1.31-.63s.54-1.05.54-1.89c0-.79-.18-1.38-.53-1.78-.36-.4-.82-.59-1.38-.59-.71,0-1.34.31-1.91.94l-2-.29,1.27-6.71h6.53v2.31h-4.66l-.39,2.19c.55-.28,1.11-.41,1.69-.41,1.1,0,2.02.4,2.79,1.2s1.14,1.83,1.14,3.1c0,1.06-.31,2.01-.92,2.84-.84,1.14-2,1.71-3.49,1.71-1.19,0-2.16-.32-2.91-.96s-1.2-1.5-1.34-2.58Z"/>
  </g>
  <rect class="cls-5" x="95.76" y="492.2" width="78" height="43" rx="15" ry="15"/>
  <path class="cls-5" d="m203.7,462.54c.3.25.43.65.31,1.02l-8.06,25.09c-.07.23-.23.42-.44.53-.45.26-1.03.1-1.29-.36l-4.81-8.55-9.38-2.87c-.23-.07-.42-.22-.54-.43-.26-.45-.11-1.03.34-1.29l22.79-13.23c.34-.2.76-.16,1.07.08h0Z"/>
  <g>
    <path class="cls-4" d="m110.33,508.22h2.6v6.98c0,1.11.03,1.83.1,2.15.11.53.38.95.79,1.27s.99.48,1.72.48,1.29-.15,1.67-.45.6-.67.68-1.11.11-1.17.11-2.19v-7.13h2.6v6.77c0,1.55-.07,2.64-.21,3.28s-.4,1.18-.78,1.62c-.38.44-.88.79-1.52,1.05s-1.46.39-2.48.39c-1.23,0-2.16-.14-2.8-.43s-1.14-.65-1.51-1.11-.61-.93-.73-1.43c-.17-.74-.25-1.83-.25-3.27v-6.87Z"/>
    <path class="cls-4" d="m122.46,518.44l2.48-.38c.11.48.32.84.64,1.09s.77.37,1.35.37c.64,0,1.12-.12,1.44-.35.22-.16.33-.38.33-.66,0-.19-.06-.34-.18-.47-.12-.12-.4-.23-.83-.33-1.99-.44-3.25-.84-3.79-1.2-.74-.5-1.11-1.2-1.11-2.1,0-.81.32-1.49.96-2.04s1.63-.83,2.97-.83,2.23.21,2.85.62,1.05,1.03,1.28,1.85l-2.33.43c-.1-.36-.29-.64-.57-.83s-.67-.29-1.19-.29c-.65,0-1.12.09-1.4.27-.19.13-.28.3-.28.5,0,.18.08.33.25.45.22.16.99.4,2.31.69s2.23.67,2.76,1.1c.52.44.77,1.05.77,1.84,0,.86-.36,1.59-1.07,2.21s-1.77.92-3.17.92c-1.27,0-2.28-.26-3.02-.77-.74-.52-1.23-1.22-1.46-2.1Z"/>
    <path class="cls-4" d="m138.74,518.13l2.46.41c-.32.9-.82,1.59-1.5,2.06-.68.47-1.54.71-2.56.71-1.62,0-2.82-.53-3.6-1.59-.62-.85-.92-1.92-.92-3.22,0-1.55.4-2.76,1.21-3.63s1.83-1.31,3.07-1.31c1.39,0,2.48.46,3.29,1.38s1.19,2.32,1.15,4.21h-6.19c.02.73.22,1.3.6,1.71s.86.61,1.42.61c.39,0,.71-.11.98-.32s.46-.55.6-1.02Zm.14-2.5c-.02-.71-.2-1.26-.55-1.63s-.78-.56-1.28-.56c-.54,0-.98.2-1.34.59s-.52.93-.52,1.6h3.69Z"/>
    <path class="cls-4" d="m145.71,521.1h-2.47v-9.33h2.29v1.33c.39-.63.75-1.04,1.06-1.24s.67-.3,1.07-.3c.56,0,1.1.16,1.63.47l-.76,2.15c-.42-.27-.8-.4-1.16-.4s-.64.09-.88.29-.43.54-.57,1.03c-.14.5-.21,1.54-.21,3.13v2.88Z"/>
    <path class="cls-4" d="m159.67,521.1v-2.59h-5.27v-2.16l5.59-8.18h2.07v8.17h1.6v2.17h-1.6v2.59h-2.39Zm0-4.76v-4.4l-2.96,4.4h2.96Z"/>
  </g>
</svg>