<?xml version="1.0" encoding="UTF-8"?>
<svg id="Layer_1" data-name="Layer 1" xmlns="http://www.w3.org/2000/svg" viewBox="0 0 1389.12 1402.44">
  <defs>
    <style>
      .cls-1 {
        fill: #333;
      }

      .cls-2 {
        fill: #111;
      }

      .cls-3 {
        fill: #262626;
      }

      .cls-4 {
        stroke: #262626;
        stroke-miterlimit: 10;
        stroke-width: 2px;
      }
    </style>
  </defs>
  <g>
    <path class="cls-2" d="m1,137.6V40C1,18.5,18.49,1,40,1h1309.12c21.5,0,39,17.5,39,39v97.6H1Z"/>
    <path class="cls-3" d="m1349.12,2c20.95,0,38,17.05,38,38v96.6H2V40C2,19.05,19.05,2,40,2h1309.12m0-2H40C17.91,0,0,17.91,0,40v98.6h1389.12V40c0-22.09-17.91-40-40-40h0Z"/>
  </g>
  <path class="cls-4" d="m1.54,138.6h1386.04v1222.84c0,22.08-17.92,40-40,40H41.54c-22.08,0-40-17.92-40-40V138.6h0Z"/>
  <path class="cls-3" d="m595.92,257.65c9.93,0,18,8.07,18,18v337.91c0,9.93-8.07,18-18,18h-337.91c-9.93,0-18-8.07-18-18v-337.91c0-9.93,8.07-18,18-18h337.91m0-2h-337.91c-11.05,0-20,8.95-20,20v337.91c0,11.05,8.95,20,20,20h337.91c11.05,0,20-8.95,20-20v-337.91c0-11.05-8.95-20-20-20h0Z"/>
  <path class="cls-3" d="m1104.92,257.65c9.93,0,18,8.07,18,18v656.1c0,9.93-8.07,18-18,18h-337.91c-9.93,0-18-8.07-18-18V275.65c0-9.93,8.07-18,18-18h337.91m0-2h-337.91c-11.05,0-20,8.95-20,20v656.1c0,11.05,8.95,20,20,20h337.91c11.05,0,20-8.95,20-20V275.65c0-11.05-8.95-20-20-20h0Z"/>
  <rect class="cls-1" x="790.05" y="320.33" width="289.53" height="21.56" rx="5" ry="5"/>
  <rect class="cls-1" x="790.05" y="377.31" width="46.2" height="21.56" rx="5" ry="5"/>
  <rect class="cls-1" x="790.05" y="349.59" width="120.12" height="9.24" rx="3" ry="3"/>
  <rect class="cls-1" x="790.05" y="423.51" width="120.12" height="9.24" rx="3" ry="3"/>
  <rect class="cls-1" x="790.05" y="438.91" width="120.12" height="9.24" rx="3" ry="3"/>
  <rect class="cls-1" x="790.05" y="454.31" width="120.12" height="9.24" rx="3" ry="3"/>
  <rect class="cls-1" x="790.05" y="497.44" width="272.59" height="32.34" rx="5" ry="5"/>
  <path class="cls-3" d="m1104.24,1096.97c9.93,0,18,8.07,18,18v226.01c0,9.93-8.07,18-18,18h-336.78c-9.93,0-18-8.07-18-18v-226.01c0-9.93,8.07-18,18-18h336.78m0-2h-336.78c-11.05,0-20,8.95-20,20v226.01c0,11.05,8.95,20,20,20h336.78c11.05,0,20-8.95,20-20v-226.01c0-11.05-8.95-20-20-20h0Z"/>
  <rect class="cls-1" x="243.33" y="1094.97" width="289.53" height="21.56" rx="5" ry="5"/>
  <rect class="cls-1" x="243.33" y="1145.8" width="411.19" height="9.24" rx="3" ry="3"/>
  <rect class="cls-1" x="243.33" y="1164.28" width="348.05" height="9.24" rx="3" ry="3"/>
  <rect class="cls-1" x="243.33" y="1182.76" width="380.39" height="9.24" rx="3" ry="3"/>
  <rect class="cls-1" x="243.33" y="1201.24" width="411.19" height="9.24" rx="3" ry="3"/>
  <rect class="cls-1" x="243.33" y="1219.72" width="411.19" height="9.24" rx="3" ry="3"/>
  <rect class="cls-1" x="243.33" y="1238.2" width="314.17" height="9.24" rx="3" ry="3"/>
  <rect class="cls-1" x="243.33" y="1256.68" width="380.39" height="9.24" rx="3" ry="3"/>
  <path class="cls-3" d="m901.71,584.58c4.41,0,8,3.59,8,8v30.38c0,4.41-3.59,8-8,8h-102.38c-4.41,0-8-3.59-8-8v-30.38c0-4.41,3.59-8,8-8h102.38m0-2h-102.38c-5.52,0-10,4.48-10,10v30.38c0,5.52,4.48,10,10,10h102.38c5.52,0,10-4.48,10-10v-30.38c0-5.52-4.48-10-10-10h0Z"/>
  <path class="cls-3" d="m1051.98,584.31c4.41,0,8,3.59,8,8v30.38c0,4.41-3.59,8-8,8h-102.38c-4.41,0-8-3.59-8-8v-30.38c0-4.41,3.59-8,8-8h102.38m0-2h-102.38c-5.52,0-10,4.48-10,10v30.38c0,5.52,4.48,10,10,10h102.38c5.52,0,10-4.48,10-10v-30.38c0-5.52-4.48-10-10-10h0Z"/>
  <path class="cls-3" d="m902.92,662.99c4.41,0,8,3.59,8,8v30.38c0,4.41-3.59,8-8,8h-102.38c-4.41,0-8-3.59-8-8v-30.38c0-4.41,3.59-8,8-8h102.38m0-2h-102.38c-5.52,0-10,4.48-10,10v30.38c0,5.52,4.48,10,10,10h102.38c5.52,0,10-4.48,10-10v-30.38c0-5.52-4.48-10-10-10h0Z"/>
  <path class="cls-3" d="m1053.2,662.72c4.41,0,8,3.59,8,8v30.38c0,4.41-3.59,8-8,8h-102.38c-4.41,0-8-3.59-8-8v-30.38c0-4.41,3.59-8,8-8h102.38m0-2h-102.38c-5.52,0-10,4.48-10,10v30.38c0,5.52,4.48,10,10,10h102.38c5.52,0,10-4.48,10-10v-30.38c0-5.52-4.48-10-10-10h0Z"/>
</svg>